<mxfile host="Electron" modified="2024-02-29T07:20:03.714Z" agent="Mozilla/5.0 (X11; Linux x86_64) AppleWebKit/537.36 (KHTML, like Gecko) draw.io/23.0.2 Chrome/120.0.6099.109 Electron/28.1.0 Safari/537.36" etag="UU4pFBSwnrxAb9GIR8VI" version="23.0.2" type="device">
  <diagram id="C5RBs43oDa-KdzZeNtuy" name="Page-1">
    <mxGraphModel dx="1434" dy="846" grid="1" gridSize="10" guides="1" tooltips="1" connect="1" arrows="1" fold="1" page="1" pageScale="1" pageWidth="827" pageHeight="1169" math="0" shadow="0">
      <root>
        <mxCell id="WIyWlLk6GJQsqaUBKTNV-0" />
        <mxCell id="WIyWlLk6GJQsqaUBKTNV-1" parent="WIyWlLk6GJQsqaUBKTNV-0" />
        <mxCell id="lSeOqTBFUOSf61Xa_-YT-2" value="" style="edgeStyle=orthogonalEdgeStyle;rounded=0;orthogonalLoop=1;jettySize=auto;html=1;" edge="1" parent="WIyWlLk6GJQsqaUBKTNV-1" target="lSeOqTBFUOSf61Xa_-YT-1">
          <mxGeometry relative="1" as="geometry">
            <mxPoint x="220" y="120" as="sourcePoint" />
          </mxGeometry>
        </mxCell>
        <mxCell id="lSeOqTBFUOSf61Xa_-YT-6" value="" style="edgeStyle=orthogonalEdgeStyle;rounded=0;orthogonalLoop=1;jettySize=auto;html=1;endArrow=none;endFill=0;startArrow=block;startFill=1;" edge="1" parent="WIyWlLk6GJQsqaUBKTNV-1" source="lSeOqTBFUOSf61Xa_-YT-1" target="lSeOqTBFUOSf61Xa_-YT-5">
          <mxGeometry relative="1" as="geometry" />
        </mxCell>
        <mxCell id="lSeOqTBFUOSf61Xa_-YT-7" value="read from config" style="edgeLabel;html=1;align=center;verticalAlign=middle;resizable=0;points=[];" vertex="1" connectable="0" parent="lSeOqTBFUOSf61Xa_-YT-6">
          <mxGeometry x="-0.2333" y="-1" relative="1" as="geometry">
            <mxPoint x="14" y="9" as="offset" />
          </mxGeometry>
        </mxCell>
        <mxCell id="lSeOqTBFUOSf61Xa_-YT-9" value="" style="edgeStyle=orthogonalEdgeStyle;rounded=0;orthogonalLoop=1;jettySize=auto;html=1;" edge="1" parent="WIyWlLk6GJQsqaUBKTNV-1" source="lSeOqTBFUOSf61Xa_-YT-1" target="lSeOqTBFUOSf61Xa_-YT-8">
          <mxGeometry relative="1" as="geometry" />
        </mxCell>
        <mxCell id="lSeOqTBFUOSf61Xa_-YT-1" value="Select configured gateway middleware" style="whiteSpace=wrap;html=1;rounded=1;glass=0;strokeWidth=1;shadow=0;" vertex="1" parent="WIyWlLk6GJQsqaUBKTNV-1">
          <mxGeometry x="130" y="170" width="180" height="60" as="geometry" />
        </mxCell>
        <mxCell id="lSeOqTBFUOSf61Xa_-YT-5" value="App Configuration" style="whiteSpace=wrap;html=1;rounded=1;glass=0;strokeWidth=1;shadow=0;" vertex="1" parent="WIyWlLk6GJQsqaUBKTNV-1">
          <mxGeometry x="450" y="175" width="130" height="50" as="geometry" />
        </mxCell>
        <mxCell id="lSeOqTBFUOSf61Xa_-YT-12" value="" style="edgeStyle=orthogonalEdgeStyle;rounded=0;orthogonalLoop=1;jettySize=auto;html=1;" edge="1" parent="WIyWlLk6GJQsqaUBKTNV-1" source="lSeOqTBFUOSf61Xa_-YT-8" target="lSeOqTBFUOSf61Xa_-YT-11">
          <mxGeometry relative="1" as="geometry" />
        </mxCell>
        <mxCell id="lSeOqTBFUOSf61Xa_-YT-8" value="Transform body to standard type based on configured gateway" style="whiteSpace=wrap;html=1;rounded=1;glass=0;strokeWidth=1;shadow=0;" vertex="1" parent="WIyWlLk6GJQsqaUBKTNV-1">
          <mxGeometry x="135" y="280" width="170" height="80" as="geometry" />
        </mxCell>
        <mxCell id="lSeOqTBFUOSf61Xa_-YT-10" value="Processed request body" style="shape=parallelogram;perimeter=parallelogramPerimeter;whiteSpace=wrap;html=1;fixedSize=1;" vertex="1" parent="WIyWlLk6GJQsqaUBKTNV-1">
          <mxGeometry x="140" y="60" width="160" height="70" as="geometry" />
        </mxCell>
        <mxCell id="lSeOqTBFUOSf61Xa_-YT-26" value="" style="edgeStyle=orthogonalEdgeStyle;rounded=0;orthogonalLoop=1;jettySize=auto;html=1;" edge="1" parent="WIyWlLk6GJQsqaUBKTNV-1" source="lSeOqTBFUOSf61Xa_-YT-11" target="lSeOqTBFUOSf61Xa_-YT-25">
          <mxGeometry relative="1" as="geometry" />
        </mxCell>
        <mxCell id="lSeOqTBFUOSf61Xa_-YT-11" value="Menu Builder" style="whiteSpace=wrap;html=1;rounded=1;glass=0;strokeWidth=1;shadow=0;" vertex="1" parent="WIyWlLk6GJQsqaUBKTNV-1">
          <mxGeometry x="145" y="400" width="150" height="50" as="geometry" />
        </mxCell>
        <mxCell id="lSeOqTBFUOSf61Xa_-YT-13" value="Session Manager" style="whiteSpace=wrap;html=1;rounded=1;glass=0;strokeWidth=1;shadow=0;" vertex="1" parent="WIyWlLk6GJQsqaUBKTNV-1">
          <mxGeometry x="430" y="295" width="130" height="50" as="geometry" />
        </mxCell>
        <mxCell id="lSeOqTBFUOSf61Xa_-YT-17" value="" style="endArrow=classic;html=1;rounded=0;entryX=0.388;entryY=0;entryDx=0;entryDy=0;exitX=1;exitY=0.75;exitDx=0;exitDy=0;entryPerimeter=0;" edge="1" parent="WIyWlLk6GJQsqaUBKTNV-1" source="lSeOqTBFUOSf61Xa_-YT-1" target="lSeOqTBFUOSf61Xa_-YT-13">
          <mxGeometry width="50" height="50" relative="1" as="geometry">
            <mxPoint x="320" y="220" as="sourcePoint" />
            <mxPoint x="433" y="298" as="targetPoint" />
          </mxGeometry>
        </mxCell>
        <mxCell id="lSeOqTBFUOSf61Xa_-YT-18" value="" style="endArrow=none;html=1;rounded=0;exitX=0.989;exitY=0.867;exitDx=0;exitDy=0;entryX=0.25;entryY=0;entryDx=0;entryDy=0;exitPerimeter=0;endFill=0;startArrow=classic;startFill=1;" edge="1" parent="WIyWlLk6GJQsqaUBKTNV-1" target="lSeOqTBFUOSf61Xa_-YT-13">
          <mxGeometry width="50" height="50" relative="1" as="geometry">
            <mxPoint x="309.02" y="222.01999999999998" as="sourcePoint" />
            <mxPoint x="431" y="307.5" as="targetPoint" />
          </mxGeometry>
        </mxCell>
        <mxCell id="lSeOqTBFUOSf61Xa_-YT-19" value="" style="endArrow=classic;html=1;rounded=0;entryX=0;entryY=0.5;entryDx=0;entryDy=0;exitX=1;exitY=0.5;exitDx=0;exitDy=0;" edge="1" parent="WIyWlLk6GJQsqaUBKTNV-1" source="lSeOqTBFUOSf61Xa_-YT-8" target="lSeOqTBFUOSf61Xa_-YT-13">
          <mxGeometry width="50" height="50" relative="1" as="geometry">
            <mxPoint x="305.98" y="307.5" as="sourcePoint" />
            <mxPoint x="428.98" y="390.5" as="targetPoint" />
          </mxGeometry>
        </mxCell>
        <mxCell id="lSeOqTBFUOSf61Xa_-YT-20" value="" style="endArrow=none;html=1;rounded=0;exitX=1;exitY=0.656;exitDx=0;exitDy=0;entryX=0;entryY=0.75;entryDx=0;entryDy=0;exitPerimeter=0;endFill=0;startArrow=classic;startFill=1;" edge="1" parent="WIyWlLk6GJQsqaUBKTNV-1" source="lSeOqTBFUOSf61Xa_-YT-8" target="lSeOqTBFUOSf61Xa_-YT-13">
          <mxGeometry width="50" height="50" relative="1" as="geometry">
            <mxPoint x="305" y="314.52" as="sourcePoint" />
            <mxPoint x="426.98" y="400" as="targetPoint" />
          </mxGeometry>
        </mxCell>
        <mxCell id="lSeOqTBFUOSf61Xa_-YT-21" value="" style="endArrow=classic;html=1;rounded=0;entryX=0.25;entryY=1;entryDx=0;entryDy=0;exitX=1;exitY=0.5;exitDx=0;exitDy=0;" edge="1" parent="WIyWlLk6GJQsqaUBKTNV-1" source="lSeOqTBFUOSf61Xa_-YT-11" target="lSeOqTBFUOSf61Xa_-YT-13">
          <mxGeometry width="50" height="50" relative="1" as="geometry">
            <mxPoint x="315" y="428" as="sourcePoint" />
            <mxPoint x="440" y="428" as="targetPoint" />
          </mxGeometry>
        </mxCell>
        <mxCell id="lSeOqTBFUOSf61Xa_-YT-22" value="" style="endArrow=none;html=1;rounded=0;exitX=1;exitY=0.75;exitDx=0;exitDy=0;entryX=0.5;entryY=1;entryDx=0;entryDy=0;endFill=0;startArrow=classic;startFill=1;" edge="1" parent="WIyWlLk6GJQsqaUBKTNV-1" source="lSeOqTBFUOSf61Xa_-YT-11" target="lSeOqTBFUOSf61Xa_-YT-13">
          <mxGeometry width="50" height="50" relative="1" as="geometry">
            <mxPoint x="315" y="440" as="sourcePoint" />
            <mxPoint x="440" y="441" as="targetPoint" />
          </mxGeometry>
        </mxCell>
        <mxCell id="lSeOqTBFUOSf61Xa_-YT-23" value="store/retrieve state" style="text;html=1;align=center;verticalAlign=middle;resizable=0;points=[];autosize=1;strokeColor=none;fillColor=none;" vertex="1" parent="WIyWlLk6GJQsqaUBKTNV-1">
          <mxGeometry x="311" y="331" width="120" height="30" as="geometry" />
        </mxCell>
        <mxCell id="lSeOqTBFUOSf61Xa_-YT-24" value="store/retrieve state" style="text;html=1;align=center;verticalAlign=middle;resizable=0;points=[];autosize=1;strokeColor=none;fillColor=none;" vertex="1" parent="WIyWlLk6GJQsqaUBKTNV-1">
          <mxGeometry x="306" y="263" width="120" height="30" as="geometry" />
        </mxCell>
        <mxCell id="lSeOqTBFUOSf61Xa_-YT-33" value="" style="edgeStyle=orthogonalEdgeStyle;rounded=0;orthogonalLoop=1;jettySize=auto;html=1;" edge="1" parent="WIyWlLk6GJQsqaUBKTNV-1" source="lSeOqTBFUOSf61Xa_-YT-25" target="lSeOqTBFUOSf61Xa_-YT-32">
          <mxGeometry relative="1" as="geometry" />
        </mxCell>
        <mxCell id="lSeOqTBFUOSf61Xa_-YT-25" value="Re-transform standard type to gateway response format" style="whiteSpace=wrap;html=1;rounded=1;glass=0;strokeWidth=1;shadow=0;" vertex="1" parent="WIyWlLk6GJQsqaUBKTNV-1">
          <mxGeometry x="133" y="510" width="175" height="70" as="geometry" />
        </mxCell>
        <mxCell id="lSeOqTBFUOSf61Xa_-YT-29" value="" style="endArrow=classic;html=1;rounded=0;entryX=0.592;entryY=1.02;entryDx=0;entryDy=0;entryPerimeter=0;" edge="1" parent="WIyWlLk6GJQsqaUBKTNV-1" target="lSeOqTBFUOSf61Xa_-YT-13">
          <mxGeometry width="50" height="50" relative="1" as="geometry">
            <mxPoint x="310" y="530" as="sourcePoint" />
            <mxPoint x="474" y="460" as="targetPoint" />
          </mxGeometry>
        </mxCell>
        <mxCell id="lSeOqTBFUOSf61Xa_-YT-30" value="" style="endArrow=none;html=1;rounded=0;exitX=1;exitY=0.75;exitDx=0;exitDy=0;entryX=0.75;entryY=1;entryDx=0;entryDy=0;endFill=0;startArrow=classic;startFill=1;" edge="1" parent="WIyWlLk6GJQsqaUBKTNV-1" target="lSeOqTBFUOSf61Xa_-YT-13">
          <mxGeometry width="50" height="50" relative="1" as="geometry">
            <mxPoint x="306" y="553" as="sourcePoint" />
            <mxPoint x="506" y="460" as="targetPoint" />
          </mxGeometry>
        </mxCell>
        <mxCell id="lSeOqTBFUOSf61Xa_-YT-32" value="Request Handler&lt;br&gt;(send response)" style="whiteSpace=wrap;html=1;rounded=1;glass=0;strokeWidth=1;shadow=0;" vertex="1" parent="WIyWlLk6GJQsqaUBKTNV-1">
          <mxGeometry x="140" y="630" width="159.5" height="45" as="geometry" />
        </mxCell>
      </root>
    </mxGraphModel>
  </diagram>
</mxfile>
